<svg xmlns="http://www.w3.org/2000/svg" xmlns:xlink="http://www.w3.org/1999/xlink" width="1500" zoomAndPan="magnify" viewBox="0 0 1125 1124.99995" height="1500" preserveAspectRatio="xMidYMid meet" version="1.0"><defs><g/><clipPath id="f37e5c0aeb"><path d="M 0 0 L 1125 0 L 1125 1125 L 0 1125 Z M 0 0 " clip-rule="nonzero"/></clipPath><clipPath id="81e308410c"><rect x="0" width="1125" y="0" height="1125"/></clipPath><clipPath id="932976f941"><path d="M 264.058594 0.441406 L 834 0.441406 L 834 570.933594 L 264.058594 570.933594 Z M 264.058594 0.441406 " clip-rule="nonzero"/></clipPath><clipPath id="cc9dd6a32c"><rect x="0" width="1096" y="0" height="1081"/></clipPath></defs><g transform="matrix(1, 0, 0, 1, 0, -0.000000000000114957)"><g clip-path="url(#81e308410c)"><g clip-path="url(#f37e5c0aeb)"><rect x="-247.5" width="1620" fill="#ffffff" height="1619.999928" y="-247.499989" fill-opacity="1"/></g></g></g><g transform="matrix(1, 0, 0, 1, 13, 28)"><g clip-path="url(#cc9dd6a32c)"><g clip-path="url(#932976f941)"><path fill="#1eae98" d="M 548.984375 547.617188 C 408.230469 547.617188 293.003906 436.152344 287.078125 296.765625 L 335.515625 296.765625 C 338.136719 350.671875 360.589844 401.164062 399.566406 439.796875 C 440.484375 480.484375 494.050781 502.707031 550.808594 502.707031 C 551.605469 502.707031 552.402344 502.707031 553.089844 502.707031 C 671.160156 501.457031 766.785156 403.898438 766.214844 284.679688 C 764.617188 256.757812 754.132812 185.757812 692.816406 130.023438 C 640.847656 82.726562 581.808594 73.152344 550.808594 71.554688 L 397.519531 71.554688 C 440.371094 41.125 492.570312 23.234375 548.984375 23.234375 C 693.5 23.117188 811.117188 140.738281 811.117188 285.367188 C 811.117188 429.992188 693.5 547.617188 548.984375 547.617188 Z M 429.199219 296.765625 L 481.054688 296.765625 C 511.945312 300.636719 537.585938 320.128906 547.960938 347.933594 C 557.648438 373.808594 550.238281 397.402344 544.769531 409.480469 C 483.335938 406.058594 433.988281 357.621094 429.199219 296.765625 Z M 317.167969 163.074219 L 547.390625 163.191406 C 581.011719 162.621094 612.925781 175.726562 637.085938 199.660156 C 660.902344 223.253906 674.007812 254.367188 673.898438 287.191406 C 673.78125 321.039062 659.992188 351.695312 637.765625 373.921875 C 639.25 365.488281 640.160156 356.941406 640.160156 348.167969 C 640.160156 269.296875 579.070312 205.246094 503.964844 205.246094 L 299.386719 205.246094 C 304.0625 190.542969 310.101562 176.410156 317.167969 163.074219 Z M 293.234375 227.8125 L 503.851562 227.8125 C 566.421875 227.8125 617.25 281.71875 617.25 348.050781 C 617.25 364.691406 614.0625 380.648438 607.90625 395.691406 C 596.054688 401.960938 583.058594 406.175781 569.382812 408.226562 C 574.972656 391.585938 579.070312 366.855469 569.046875 339.957031 C 555.597656 303.945312 522.65625 278.753906 482.882812 274.085938 C 482.425781 274.085938 481.96875 273.96875 481.515625 273.96875 L 287.078125 273.96875 C 287.765625 258.242188 289.816406 242.855469 293.234375 227.8125 Z M 369.707031 94.238281 L 550.125 94.238281 C 577.59375 95.605469 630.699219 104.152344 677.429688 146.777344 C 732.59375 196.921875 741.9375 260.863281 743.421875 285.367188 C 743.875 391.585938 658.398438 478.890625 552.746094 480.03125 C 501.6875 480.601562 452.5625 460.539062 415.523438 423.726562 C 380.878906 389.308594 360.816406 344.632812 358.308594 296.765625 L 406.519531 296.765625 C 411.421875 372.101562 473.992188 431.933594 550.46875 432.503906 C 550.808594 432.503906 551.148438 432.617188 551.492188 432.617188 C 551.949219 432.617188 552.289062 432.503906 552.628906 432.503906 C 631.839844 431.820312 696.351562 366.972656 696.578125 287.304688 C 696.691406 248.328125 681.304688 211.511719 653.039062 183.589844 C 624.546875 155.324219 586.710938 139.9375 547.160156 140.507812 L 330.613281 140.398438 C 341.898438 123.527344 355.007812 108.027344 369.707031 94.238281 Z M 548.984375 0.441406 C 475.925781 0.441406 409.253906 28.019531 358.878906 73.382812 C 357.96875 74.066406 357.058594 74.746094 356.375 75.660156 C 334.71875 95.605469 316.140625 118.851562 301.441406 144.613281 C 300.753906 145.523438 300.183594 146.4375 299.730469 147.578125 C 288.21875 168.203125 279.214844 190.429688 273.175781 213.90625 C 273.175781 214.019531 273.058594 214.136719 273.058594 214.25 C 267.132812 237.042969 264.058594 260.863281 264.058594 285.367188 C 264.058594 442.417969 391.820312 570.292969 548.984375 570.292969 C 706.148438 570.292969 833.910156 442.417969 833.910156 285.367188 C 833.910156 128.3125 706.039062 0.441406 548.984375 0.441406 " fill-opacity="1" fill-rule="nonzero"/></g><g fill="#000000" fill-opacity="1"><g transform="translate(267.945851, 830.140877)"><g><path d="M 106.578125 2.96875 C 91.960938 2.96875 78.679688 0.5 66.734375 -4.4375 C 54.796875 -9.382812 44.488281 -16.234375 35.8125 -24.984375 C 27.144531 -33.734375 20.492188 -43.890625 15.859375 -55.453125 C 11.222656 -67.015625 8.90625 -79.414062 8.90625 -92.65625 L 8.90625 -93.109375 C 8.90625 -106.492188 11.222656 -118.925781 15.859375 -130.40625 C 20.492188 -141.894531 27.109375 -151.972656 35.703125 -160.640625 C 44.304688 -169.316406 54.613281 -176.085938 66.625 -180.953125 C 78.644531 -185.828125 91.960938 -188.265625 106.578125 -188.265625 C 121.179688 -188.265625 134.414062 -185.828125 146.28125 -180.953125 C 158.144531 -176.085938 168.375 -169.316406 176.96875 -160.640625 C 185.5625 -151.972656 192.175781 -141.894531 196.8125 -130.40625 C 201.457031 -118.925781 203.78125 -106.492188 203.78125 -93.109375 L 203.78125 -92.65625 C 203.78125 -79.414062 201.457031 -67.015625 196.8125 -55.453125 C 192.175781 -43.890625 185.5625 -33.734375 176.96875 -24.984375 C 168.375 -16.234375 158.101562 -9.382812 146.15625 -4.4375 C 134.21875 0.5 121.023438 2.96875 106.578125 2.96875 Z M 106.578125 -36.734375 C 116.765625 -36.734375 125.925781 -39.050781 134.0625 -43.6875 C 142.207031 -48.332031 148.632812 -54.875 153.34375 -63.3125 C 158.0625 -71.757812 160.421875 -81.539062 160.421875 -92.65625 L 160.421875 -93.109375 C 160.421875 -104.367188 158.0625 -114.144531 153.34375 -122.4375 C 148.632812 -130.726562 142.207031 -137.15625 134.0625 -141.71875 C 125.925781 -146.28125 116.765625 -148.5625 106.578125 -148.5625 C 96.222656 -148.5625 86.9375 -146.28125 78.71875 -141.71875 C 70.507812 -137.15625 64.046875 -130.726562 59.328125 -122.4375 C 54.617188 -114.144531 52.265625 -104.367188 52.265625 -93.109375 L 52.265625 -92.65625 C 52.265625 -81.539062 54.617188 -71.757812 59.328125 -63.3125 C 64.046875 -54.875 70.507812 -48.332031 78.71875 -43.6875 C 86.9375 -39.050781 96.222656 -36.734375 106.578125 -36.734375 Z M 106.578125 -36.734375 "/></g></g></g><g fill="#000000" fill-opacity="1"><g transform="translate(480.626477, 830.140877)"><g><path d="M 54.3125 0 L 11.640625 0 L 11.640625 -185.078125 L 100.1875 -185.078125 C 112.351562 -185.078125 122.65625 -183.441406 131.09375 -180.171875 C 139.539062 -176.898438 146.347656 -172.445312 151.515625 -166.8125 C 156.691406 -161.1875 160.457031 -154.835938 162.8125 -147.765625 C 165.175781 -140.691406 166.359375 -133.425781 166.359375 -125.96875 L 166.359375 -125.734375 C 166.359375 -114.785156 164.078125 -104.59375 159.515625 -95.15625 C 154.953125 -85.726562 147.835938 -78.125 138.171875 -72.34375 C 128.515625 -66.5625 115.851562 -63.671875 100.1875 -63.671875 L 54.3125 -63.671875 Z M 54.3125 -145.359375 L 54.3125 -100.640625 L 95.609375 -100.640625 C 104.585938 -100.640625 111.359375 -102.425781 115.921875 -106 C 120.484375 -109.570312 122.765625 -115.160156 122.765625 -122.765625 L 122.765625 -123 C 122.765625 -137.90625 113.710938 -145.359375 95.609375 -145.359375 Z M 54.3125 -145.359375 "/></g></g></g><g fill="#000000" fill-opacity="1"><g transform="translate(653.372426, 830.140877)"><g><path d="M 106.796875 3.1875 C 87.328125 3.1875 70.210938 -0.765625 55.453125 -8.671875 C 40.691406 -16.578125 29.242188 -27.71875 21.109375 -42.09375 C 12.972656 -56.476562 8.90625 -73.175781 8.90625 -92.1875 L 8.90625 -92.65625 C 8.90625 -111.820312 12.972656 -128.554688 21.109375 -142.859375 C 29.242188 -157.160156 40.648438 -168.300781 55.328125 -176.28125 C 70.015625 -184.269531 87.171875 -188.265625 106.796875 -188.265625 C 119.421875 -188.265625 130.71875 -186.703125 140.6875 -183.578125 C 150.65625 -180.460938 159.820312 -176.320312 168.1875 -171.15625 L 151.75 -136.234375 C 143.84375 -140.796875 136.160156 -143.988281 128.703125 -145.8125 C 121.253906 -147.644531 113.953125 -148.5625 106.796875 -148.5625 C 96.609375 -148.5625 87.367188 -146.351562 79.078125 -141.9375 C 70.785156 -137.53125 64.242188 -131.140625 59.453125 -122.765625 C 54.660156 -114.398438 52.265625 -104.363281 52.265625 -92.65625 L 52.265625 -92.1875 C 52.265625 -81.238281 54.660156 -71.578125 59.453125 -63.203125 C 64.242188 -54.835938 70.785156 -48.332031 79.078125 -43.6875 C 87.367188 -39.050781 96.609375 -36.734375 106.796875 -36.734375 C 113.953125 -36.734375 121.253906 -37.609375 128.703125 -39.359375 C 136.160156 -41.109375 143.84375 -44.265625 151.75 -48.828125 L 168.1875 -13.921875 C 159.820312 -8.898438 150.734375 -4.789062 140.921875 -1.59375 C 131.109375 1.59375 119.734375 3.1875 106.796875 3.1875 Z M 106.796875 3.1875 "/></g></g></g><g fill="#000000" fill-opacity="1"><g transform="translate(2.587612, 1037.658649)"><g><path d="M 70.921875 -18.4375 L 80.71875 -77.109375 L 99.734375 -77.109375 L 84.90625 0 L 60.5625 0 L 50.765625 -58.375 L 40.984375 0 L 16.640625 0 L 1.8125 -77.109375 L 20.828125 -77.109375 L 30.609375 -18.640625 L 40.5 -77.109375 L 61.140625 -77.109375 Z M 70.921875 -18.4375 "/></g></g></g><g fill="#000000" fill-opacity="1"><g transform="translate(98.135848, 1037.658649)"><g><path d="M 31.09375 -57.421875 C 36.414062 -57.421875 41.023438 -56.738281 44.921875 -55.375 C 48.816406 -54.019531 51.828125 -51.722656 53.953125 -48.484375 C 56.078125 -45.253906 57.140625 -40.785156 57.140625 -35.078125 L 57.140625 -1.140625 C 53.335938 -0.316406 49.101562 0.34375 44.4375 0.84375 C 39.78125 1.351562 35.425781 1.609375 31.375 1.609375 C 25.800781 1.609375 20.9375 1.039062 16.78125 -0.09375 C 12.625 -1.238281 9.40625 -3.125 7.125 -5.75 C 4.84375 -8.382812 3.703125 -11.953125 3.703125 -16.453125 L 3.703125 -16.546875 C 3.703125 -22.503906 5.953125 -26.859375 10.453125 -29.609375 C 14.953125 -32.367188 20.847656 -33.75 28.140625 -33.75 C 30.046875 -33.75 31.898438 -33.703125 33.703125 -33.609375 C 35.515625 -33.515625 37.398438 -33.304688 39.359375 -32.984375 L 39.359375 -34.515625 C 39.359375 -37.554688 38.265625 -39.660156 36.078125 -40.828125 C 33.890625 -42.003906 30.925781 -42.59375 27.1875 -42.59375 C 24.59375 -42.59375 21.488281 -42.289062 17.875 -41.6875 C 14.257812 -41.082031 10.929688 -40.242188 7.890625 -39.171875 L 11.984375 -54.765625 C 13.242188 -55.210938 14.90625 -55.625 16.96875 -56 C 19.03125 -56.382812 21.296875 -56.71875 23.765625 -57 C 26.242188 -57.28125 28.6875 -57.421875 31.09375 -57.421875 Z M 22.0625 -17.6875 L 22.0625 -17.59375 C 22.0625 -15.5625 22.960938 -14.066406 24.765625 -13.109375 C 26.578125 -12.160156 29.035156 -11.6875 32.140625 -11.6875 C 33.273438 -11.6875 34.460938 -11.734375 35.703125 -11.828125 C 36.941406 -11.929688 38.160156 -12.046875 39.359375 -12.171875 L 39.359375 -22.8125 C 38.160156 -23.070312 36.910156 -23.25 35.609375 -23.34375 C 34.304688 -23.4375 33.148438 -23.484375 32.140625 -23.484375 C 29.035156 -23.484375 26.578125 -23.054688 24.765625 -22.203125 C 22.960938 -21.347656 22.0625 -19.84375 22.0625 -17.6875 Z M 22.0625 -17.6875 "/></g></g></g><g fill="#000000" fill-opacity="1"><g transform="translate(160.028426, 1037.658649)"><g><path d="M 22.71875 0 L 4.84375 0 L 4.84375 -53.34375 C 7.695312 -53.90625 10.644531 -54.34375 13.6875 -54.65625 C 16.726562 -54.976562 19.578125 -55.1875 22.234375 -55.28125 C 24.898438 -55.382812 27.09375 -55.4375 28.8125 -55.4375 L 39.9375 -55.4375 L 39.9375 -38.890625 L 31.5625 -38.890625 C 31.0625 -38.890625 30.160156 -38.859375 28.859375 -38.796875 C 27.554688 -38.734375 26.285156 -38.664062 25.046875 -38.59375 C 23.816406 -38.53125 23.039062 -38.46875 22.71875 -38.40625 Z M 22.71875 0 "/></g></g></g><g fill="#000000" fill-opacity="1"><g transform="translate(201.57528, 1037.658649)"><g><path d="M 62.1875 -25.484375 L 62.1875 -24.53125 L 22.25 -24.53125 C 23.070312 -21.550781 24.640625 -19.046875 26.953125 -17.015625 C 29.265625 -14.984375 32.164062 -13.96875 35.65625 -13.96875 C 38.882812 -13.96875 41.910156 -14.472656 44.734375 -15.484375 C 47.554688 -16.503906 49.945312 -17.710938 51.90625 -19.109375 L 59.703125 -5.328125 C 56.785156 -3.546875 53.332031 -1.957031 49.34375 -0.5625 C 45.351562 0.820312 40.566406 1.515625 34.984375 1.515625 C 28.648438 1.515625 23.132812 0.28125 18.4375 -2.1875 C 13.75 -4.65625 10.117188 -8.125 7.546875 -12.59375 C 4.984375 -17.0625 3.703125 -22.210938 3.703125 -28.046875 L 3.703125 -28.234375 C 3.703125 -34.066406 4.90625 -39.1875 7.3125 -43.59375 C 9.726562 -48 13.15625 -51.453125 17.59375 -53.953125 C 22.03125 -56.460938 27.226562 -57.71875 33.1875 -57.71875 C 39.144531 -57.71875 44.273438 -56.460938 48.578125 -53.953125 C 52.890625 -51.453125 56.234375 -47.789062 58.609375 -42.96875 C 60.992188 -38.15625 62.1875 -32.328125 62.1875 -25.484375 Z M 32.984375 -43.640625 C 30.265625 -43.640625 27.96875 -42.734375 26.09375 -40.921875 C 24.226562 -39.117188 22.945312 -36.890625 22.25 -34.234375 L 44.109375 -34.234375 C 43.609375 -37.015625 42.390625 -39.273438 40.453125 -41.015625 C 38.523438 -42.765625 36.035156 -43.640625 32.984375 -43.640625 Z M 32.984375 -43.640625 "/></g></g></g><g fill="#000000" fill-opacity="1"><g transform="translate(267.460924, 1037.658649)"><g><path d="M 31.09375 -57.8125 C 34.570312 -57.8125 37.894531 -57.476562 41.0625 -56.8125 C 44.238281 -56.144531 47.0625 -54.984375 49.53125 -53.328125 C 52.007812 -51.679688 53.957031 -49.460938 55.375 -46.671875 C 56.800781 -43.890625 57.515625 -40.34375 57.515625 -36.03125 L 57.515625 0 L 39.640625 0 L 39.640625 -33.9375 C 39.640625 -36.789062 38.878906 -38.816406 37.359375 -40.015625 C 35.835938 -41.222656 33.523438 -41.828125 30.421875 -41.828125 C 29.410156 -41.828125 28.207031 -41.765625 26.8125 -41.640625 C 25.414062 -41.515625 24.050781 -41.328125 22.71875 -41.078125 L 22.71875 0 L 4.84375 0 L 4.84375 -77.109375 L 22.71875 -77.109375 L 22.71875 -57.328125 C 24.375 -57.453125 25.910156 -57.5625 27.328125 -57.65625 C 28.753906 -57.757812 30.007812 -57.8125 31.09375 -57.8125 Z M 31.09375 -57.8125 "/></g></g></g><g fill="#000000" fill-opacity="1"><g transform="translate(329.923928, 1037.658649)"><g><path d="M 34.890625 1.609375 C 28.742188 1.609375 23.320312 0.328125 18.625 -2.234375 C 13.9375 -4.796875 10.273438 -8.328125 7.640625 -12.828125 C 5.015625 -17.335938 3.703125 -22.441406 3.703125 -28.140625 L 3.703125 -28.234375 C 3.703125 -34.003906 5.015625 -39.109375 7.640625 -43.546875 C 10.273438 -47.984375 13.9375 -51.46875 18.625 -54 C 23.320312 -56.539062 28.742188 -57.8125 34.890625 -57.8125 C 41.109375 -57.8125 46.546875 -56.539062 51.203125 -54 C 55.859375 -51.46875 59.5 -47.984375 62.125 -43.546875 C 64.757812 -39.109375 66.078125 -34.003906 66.078125 -28.234375 L 66.078125 -28.140625 C 66.078125 -22.441406 64.757812 -17.335938 62.125 -12.828125 C 59.5 -8.328125 55.835938 -4.796875 51.140625 -2.234375 C 46.453125 0.328125 41.035156 1.609375 34.890625 1.609375 Z M 34.890625 -14.359375 C 38.890625 -14.359375 42.09375 -15.6875 44.5 -18.34375 C 46.90625 -21.007812 48.109375 -24.304688 48.109375 -28.234375 L 48.109375 -28.328125 C 48.109375 -32.265625 46.9375 -35.5 44.59375 -38.03125 C 42.25 -40.5625 39.015625 -41.828125 34.890625 -41.828125 C 30.835938 -41.828125 27.617188 -40.5625 25.234375 -38.03125 C 22.859375 -35.5 21.671875 -32.265625 21.671875 -28.328125 L 21.671875 -28.234375 C 21.671875 -24.304688 22.875 -21.007812 25.28125 -18.34375 C 27.695312 -15.6875 30.898438 -14.359375 34.890625 -14.359375 Z M 34.890625 -14.359375 "/></g></g></g><g fill="#000000" fill-opacity="1"><g transform="translate(399.707564, 1037.658649)"><g><path d="M 31.375 1.609375 C 27.882812 1.609375 24.554688 1.257812 21.390625 0.5625 C 18.222656 -0.125 15.382812 -1.273438 12.875 -2.890625 C 10.375 -4.515625 8.410156 -6.734375 6.984375 -9.546875 C 5.554688 -12.367188 4.84375 -15.90625 4.84375 -20.15625 L 4.84375 -55.4375 L 22.71875 -55.4375 L 22.71875 -21.578125 C 22.71875 -18.660156 23.492188 -16.613281 25.046875 -15.4375 C 26.597656 -14.269531 28.929688 -13.6875 32.046875 -13.6875 C 33.117188 -13.6875 34.320312 -13.75 35.65625 -13.875 C 36.988281 -14.007812 38.351562 -14.203125 39.75 -14.453125 L 39.75 -55.4375 L 57.625 -55.4375 L 57.625 -1.421875 C 54.507812 -0.859375 51.269531 -0.351562 47.90625 0.09375 C 44.550781 0.539062 41.414062 0.90625 38.5 1.1875 C 35.59375 1.46875 33.21875 1.609375 31.375 1.609375 Z M 31.375 1.609375 "/></g></g></g><g fill="#000000" fill-opacity="1"><g transform="translate(462.17054, 1037.658649)"><g><path d="M 28.8125 1.328125 C 19.875 1.328125 11.472656 -0.378906 3.609375 -3.796875 L 8.265625 -16.0625 C 11.628906 -14.664062 14.925781 -13.632812 18.15625 -12.96875 C 21.394531 -12.3125 24.375 -11.984375 27.09375 -11.984375 C 29.882812 -11.984375 32.117188 -12.265625 33.796875 -12.828125 C 35.472656 -13.398438 36.3125 -14.476562 36.3125 -16.0625 C 36.3125 -17.144531 35.738281 -18.035156 34.59375 -18.734375 C 33.457031 -19.429688 31.179688 -20.222656 27.765625 -21.109375 L 22.53125 -22.53125 C 16.820312 -24.050781 12.585938 -26.253906 9.828125 -29.140625 C 7.078125 -32.023438 5.703125 -35.84375 5.703125 -40.59375 C 5.703125 -45.851562 7.679688 -50.019531 11.640625 -53.09375 C 15.609375 -56.175781 21.332031 -57.71875 28.8125 -57.71875 C 33.125 -57.71875 37.367188 -57.269531 41.546875 -56.375 C 45.734375 -55.488281 49.21875 -54.253906 52 -52.671875 L 46.96875 -40.78125 C 44.5 -42.050781 41.789062 -42.972656 38.84375 -43.546875 C 35.894531 -44.117188 33.28125 -44.40625 31 -44.40625 C 28.78125 -44.40625 27.050781 -44.164062 25.8125 -43.6875 C 24.570312 -43.207031 23.953125 -42.367188 23.953125 -41.171875 C 23.953125 -40.085938 24.539062 -39.195312 25.71875 -38.5 C 26.894531 -37.800781 28.9375 -37.070312 31.84375 -36.3125 L 35.46875 -35.28125 C 41.675781 -33.5625 46.253906 -31.226562 49.203125 -28.28125 C 52.148438 -25.332031 53.625 -21.671875 53.625 -17.296875 C 53.625 -4.878906 45.351562 1.328125 28.8125 1.328125 Z M 28.8125 1.328125 "/></g></g></g><g fill="#000000" fill-opacity="1"><g transform="translate(517.883338, 1037.658649)"><g><path d="M 62.1875 -25.484375 L 62.1875 -24.53125 L 22.25 -24.53125 C 23.070312 -21.550781 24.640625 -19.046875 26.953125 -17.015625 C 29.265625 -14.984375 32.164062 -13.96875 35.65625 -13.96875 C 38.882812 -13.96875 41.910156 -14.472656 44.734375 -15.484375 C 47.554688 -16.503906 49.945312 -17.710938 51.90625 -19.109375 L 59.703125 -5.328125 C 56.785156 -3.546875 53.332031 -1.957031 49.34375 -0.5625 C 45.351562 0.820312 40.566406 1.515625 34.984375 1.515625 C 28.648438 1.515625 23.132812 0.28125 18.4375 -2.1875 C 13.75 -4.65625 10.117188 -8.125 7.546875 -12.59375 C 4.984375 -17.0625 3.703125 -22.210938 3.703125 -28.046875 L 3.703125 -28.234375 C 3.703125 -34.066406 4.90625 -39.1875 7.3125 -43.59375 C 9.726562 -48 13.15625 -51.453125 17.59375 -53.953125 C 22.03125 -56.460938 27.226562 -57.71875 33.1875 -57.71875 C 39.144531 -57.71875 44.273438 -56.460938 48.578125 -53.953125 C 52.890625 -51.453125 56.234375 -47.789062 58.609375 -42.96875 C 60.992188 -38.15625 62.1875 -32.328125 62.1875 -25.484375 Z M 32.984375 -43.640625 C 30.265625 -43.640625 27.96875 -42.734375 26.09375 -40.921875 C 24.226562 -39.117188 22.945312 -36.890625 22.25 -34.234375 L 44.109375 -34.234375 C 43.609375 -37.015625 42.390625 -39.273438 40.453125 -41.015625 C 38.523438 -42.765625 36.035156 -43.640625 32.984375 -43.640625 Z M 32.984375 -43.640625 "/></g></g></g><g fill="#000000" fill-opacity="1"><g transform="translate(583.768982, 1037.658649)"><g/></g></g><g fill="#000000" fill-opacity="1"><g transform="translate(599.265902, 1037.658649)"><g><path d="M 32.703125 1.234375 C 26.804688 1.234375 21.242188 0.617188 16.015625 -0.609375 C 10.785156 -1.847656 6.429688 -3.546875 2.953125 -5.703125 L 9.796875 -20.53125 C 12.578125 -18.632812 15.914062 -17.160156 19.8125 -16.109375 C 23.71875 -15.066406 27.796875 -14.546875 32.046875 -14.546875 C 36.222656 -14.546875 39.5625 -15.144531 42.0625 -16.34375 C 44.570312 -17.550781 45.828125 -19.328125 45.828125 -21.671875 L 45.828125 -21.875 C 45.828125 -23.257812 45.316406 -24.425781 44.296875 -25.375 C 43.285156 -26.332031 41.5625 -27.285156 39.125 -28.234375 C 36.6875 -29.191406 33.3125 -30.269531 29 -31.46875 C 23.351562 -33.113281 18.832031 -34.984375 15.4375 -37.078125 C 12.050781 -39.171875 9.613281 -41.738281 8.125 -44.78125 C 6.632812 -47.820312 5.890625 -51.53125 5.890625 -55.90625 L 5.890625 -56.09375 C 5.890625 -60.59375 7.046875 -64.519531 9.359375 -67.875 C 11.671875 -71.238281 15.015625 -73.835938 19.390625 -75.671875 C 23.765625 -77.515625 28.992188 -78.4375 35.078125 -78.4375 C 40.335938 -78.4375 45.390625 -77.847656 50.234375 -76.671875 C 55.085938 -75.503906 59.226562 -73.84375 62.65625 -71.6875 L 55.90625 -56.953125 C 53.113281 -58.785156 49.878906 -60.191406 46.203125 -61.171875 C 42.523438 -62.160156 38.816406 -62.65625 35.078125 -62.65625 C 31.148438 -62.65625 28.25 -62.066406 26.375 -60.890625 C 24.507812 -59.722656 23.578125 -58.21875 23.578125 -56.375 L 23.578125 -56.28125 C 23.578125 -54.195312 24.59375 -52.535156 26.625 -51.296875 C 28.65625 -50.054688 32.015625 -48.707031 36.703125 -47.25 C 43.359375 -45.289062 48.648438 -43.234375 52.578125 -41.078125 C 56.503906 -38.921875 59.335938 -36.351562 61.078125 -33.375 C 62.828125 -30.394531 63.703125 -26.625 63.703125 -22.0625 L 63.703125 -21.875 C 63.703125 -14.519531 60.941406 -8.828125 55.421875 -4.796875 C 49.910156 -0.773438 42.335938 1.234375 32.703125 1.234375 Z M 32.703125 1.234375 "/></g></g></g><g fill="#000000" fill-opacity="1"><g transform="translate(665.817049, 1037.658649)"><g><path d="M 34.890625 1.609375 C 28.742188 1.609375 23.320312 0.328125 18.625 -2.234375 C 13.9375 -4.796875 10.273438 -8.328125 7.640625 -12.828125 C 5.015625 -17.335938 3.703125 -22.441406 3.703125 -28.140625 L 3.703125 -28.234375 C 3.703125 -34.003906 5.015625 -39.109375 7.640625 -43.546875 C 10.273438 -47.984375 13.9375 -51.46875 18.625 -54 C 23.320312 -56.539062 28.742188 -57.8125 34.890625 -57.8125 C 41.109375 -57.8125 46.546875 -56.539062 51.203125 -54 C 55.859375 -51.46875 59.5 -47.984375 62.125 -43.546875 C 64.757812 -39.109375 66.078125 -34.003906 66.078125 -28.234375 L 66.078125 -28.140625 C 66.078125 -22.441406 64.757812 -17.335938 62.125 -12.828125 C 59.5 -8.328125 55.835938 -4.796875 51.140625 -2.234375 C 46.453125 0.328125 41.035156 1.609375 34.890625 1.609375 Z M 34.890625 -14.359375 C 38.890625 -14.359375 42.09375 -15.6875 44.5 -18.34375 C 46.90625 -21.007812 48.109375 -24.304688 48.109375 -28.234375 L 48.109375 -28.328125 C 48.109375 -32.265625 46.9375 -35.5 44.59375 -38.03125 C 42.25 -40.5625 39.015625 -41.828125 34.890625 -41.828125 C 30.835938 -41.828125 27.617188 -40.5625 25.234375 -38.03125 C 22.859375 -35.5 21.671875 -32.265625 21.671875 -28.328125 L 21.671875 -28.234375 C 21.671875 -24.304688 22.875 -21.007812 25.28125 -18.34375 C 27.695312 -15.6875 30.898438 -14.359375 34.890625 -14.359375 Z M 34.890625 -14.359375 "/></g></g></g><g fill="#000000" fill-opacity="1"><g transform="translate(735.600658, 1037.658649)"><g><path d="M 22.71875 0 L 4.84375 0 L 4.84375 -77.109375 L 22.71875 -77.109375 Z M 22.71875 0 "/></g></g></g><g fill="#000000" fill-opacity="1"><g transform="translate(763.266932, 1037.658649)"><g><path d="M 31.375 1.609375 C 27.882812 1.609375 24.554688 1.257812 21.390625 0.5625 C 18.222656 -0.125 15.382812 -1.273438 12.875 -2.890625 C 10.375 -4.515625 8.410156 -6.734375 6.984375 -9.546875 C 5.554688 -12.367188 4.84375 -15.90625 4.84375 -20.15625 L 4.84375 -55.4375 L 22.71875 -55.4375 L 22.71875 -21.578125 C 22.71875 -18.660156 23.492188 -16.613281 25.046875 -15.4375 C 26.597656 -14.269531 28.929688 -13.6875 32.046875 -13.6875 C 33.117188 -13.6875 34.320312 -13.75 35.65625 -13.875 C 36.988281 -14.007812 38.351562 -14.203125 39.75 -14.453125 L 39.75 -55.4375 L 57.625 -55.4375 L 57.625 -1.421875 C 54.507812 -0.859375 51.269531 -0.351562 47.90625 0.09375 C 44.550781 0.539062 41.414062 0.90625 38.5 1.1875 C 35.59375 1.46875 33.21875 1.609375 31.375 1.609375 Z M 31.375 1.609375 "/></g></g></g><g fill="#000000" fill-opacity="1"><g transform="translate(825.729964, 1037.658649)"><g><path d="M 48.6875 0 L 29 0 C 22.65625 0 18.101562 -1.503906 15.34375 -4.515625 C 12.59375 -7.523438 11.21875 -12.101562 11.21875 -18.25 L 11.21875 -38.890625 L 1.90625 -38.890625 L 1.90625 -55.4375 L 11.21875 -55.4375 L 11.21875 -71.6875 L 29.1875 -71.6875 L 29.1875 -55.4375 L 48.578125 -55.4375 L 48.578125 -38.890625 L 29.1875 -38.890625 L 29.1875 -23.953125 C 29.1875 -21.484375 29.816406 -19.644531 31.078125 -18.4375 C 32.347656 -17.238281 34.378906 -16.640625 37.171875 -16.640625 L 48.6875 -16.640625 Z M 48.6875 0 "/></g></g></g><g fill="#000000" fill-opacity="1"><g transform="translate(878.305347, 1037.658649)"><g><path d="M 13.875 -62.1875 C 11.53125 -62.1875 9.519531 -62.800781 7.84375 -64.03125 C 6.164062 -65.269531 5.328125 -67.1875 5.328125 -69.78125 C 5.328125 -72.0625 6.132812 -73.867188 7.75 -75.203125 C 9.363281 -76.535156 11.40625 -77.203125 13.875 -77.203125 C 16.289062 -77.203125 18.304688 -76.535156 19.921875 -75.203125 C 21.535156 -73.867188 22.34375 -72.0625 22.34375 -69.78125 C 22.34375 -67.1875 21.5 -65.269531 19.8125 -64.03125 C 18.132812 -62.800781 16.15625 -62.1875 13.875 -62.1875 Z M 22.71875 0 L 4.84375 0 L 4.84375 -55.4375 L 22.71875 -55.4375 Z M 22.71875 0 "/></g></g></g><g fill="#000000" fill-opacity="1"><g transform="translate(905.971621, 1037.658649)"><g><path d="M 34.890625 1.609375 C 28.742188 1.609375 23.320312 0.328125 18.625 -2.234375 C 13.9375 -4.796875 10.273438 -8.328125 7.640625 -12.828125 C 5.015625 -17.335938 3.703125 -22.441406 3.703125 -28.140625 L 3.703125 -28.234375 C 3.703125 -34.003906 5.015625 -39.109375 7.640625 -43.546875 C 10.273438 -47.984375 13.9375 -51.46875 18.625 -54 C 23.320312 -56.539062 28.742188 -57.8125 34.890625 -57.8125 C 41.109375 -57.8125 46.546875 -56.539062 51.203125 -54 C 55.859375 -51.46875 59.5 -47.984375 62.125 -43.546875 C 64.757812 -39.109375 66.078125 -34.003906 66.078125 -28.234375 L 66.078125 -28.140625 C 66.078125 -22.441406 64.757812 -17.335938 62.125 -12.828125 C 59.5 -8.328125 55.835938 -4.796875 51.140625 -2.234375 C 46.453125 0.328125 41.035156 1.609375 34.890625 1.609375 Z M 34.890625 -14.359375 C 38.890625 -14.359375 42.09375 -15.6875 44.5 -18.34375 C 46.90625 -21.007812 48.109375 -24.304688 48.109375 -28.234375 L 48.109375 -28.328125 C 48.109375 -32.265625 46.9375 -35.5 44.59375 -38.03125 C 42.25 -40.5625 39.015625 -41.828125 34.890625 -41.828125 C 30.835938 -41.828125 27.617188 -40.5625 25.234375 -38.03125 C 22.859375 -35.5 21.671875 -32.265625 21.671875 -28.328125 L 21.671875 -28.234375 C 21.671875 -24.304688 22.875 -21.007812 25.28125 -18.34375 C 27.695312 -15.6875 30.898438 -14.359375 34.890625 -14.359375 Z M 34.890625 -14.359375 "/></g></g></g><g fill="#000000" fill-opacity="1"><g transform="translate(975.755231, 1037.658649)"><g><path d="M 22.71875 0 L 4.84375 0 L 4.84375 -54.859375 C 7.957031 -55.429688 11.191406 -55.9375 14.546875 -56.375 C 17.910156 -56.820312 21.046875 -57.171875 23.953125 -57.421875 C 26.867188 -57.679688 29.25 -57.8125 31.09375 -57.8125 C 34.570312 -57.8125 37.894531 -57.476562 41.0625 -56.8125 C 44.238281 -56.144531 47.078125 -54.984375 49.578125 -53.328125 C 52.085938 -51.679688 54.054688 -49.460938 55.484375 -46.671875 C 56.910156 -43.890625 57.625 -40.34375 57.625 -36.03125 L 57.625 0 L 39.75 0 L 39.75 -33.9375 C 39.75 -36.789062 38.984375 -38.816406 37.453125 -40.015625 C 35.929688 -41.222656 33.585938 -41.828125 30.421875 -41.828125 C 28.328125 -41.828125 25.757812 -41.578125 22.71875 -41.078125 Z M 22.71875 0 "/></g></g></g><g fill="#000000" fill-opacity="1"><g transform="translate(1038.218316, 1037.658649)"><g><path d="M 28.8125 1.328125 C 19.875 1.328125 11.472656 -0.378906 3.609375 -3.796875 L 8.265625 -16.0625 C 11.628906 -14.664062 14.925781 -13.632812 18.15625 -12.96875 C 21.394531 -12.3125 24.375 -11.984375 27.09375 -11.984375 C 29.882812 -11.984375 32.117188 -12.265625 33.796875 -12.828125 C 35.472656 -13.398438 36.3125 -14.476562 36.3125 -16.0625 C 36.3125 -17.144531 35.738281 -18.035156 34.59375 -18.734375 C 33.457031 -19.429688 31.179688 -20.222656 27.765625 -21.109375 L 22.53125 -22.53125 C 16.820312 -24.050781 12.585938 -26.253906 9.828125 -29.140625 C 7.078125 -32.023438 5.703125 -35.84375 5.703125 -40.59375 C 5.703125 -45.851562 7.679688 -50.019531 11.640625 -53.09375 C 15.609375 -56.175781 21.332031 -57.71875 28.8125 -57.71875 C 33.125 -57.71875 37.367188 -57.269531 41.546875 -56.375 C 45.734375 -55.488281 49.21875 -54.253906 52 -52.671875 L 46.96875 -40.78125 C 44.5 -42.050781 41.789062 -42.972656 38.84375 -43.546875 C 35.894531 -44.117188 33.28125 -44.40625 31 -44.40625 C 28.78125 -44.40625 27.050781 -44.164062 25.8125 -43.6875 C 24.570312 -43.207031 23.953125 -42.367188 23.953125 -41.171875 C 23.953125 -40.085938 24.539062 -39.195312 25.71875 -38.5 C 26.894531 -37.800781 28.9375 -37.070312 31.84375 -36.3125 L 35.46875 -35.28125 C 41.675781 -33.5625 46.253906 -31.226562 49.203125 -28.28125 C 52.148438 -25.332031 53.625 -21.671875 53.625 -17.296875 C 53.625 -4.878906 45.351562 1.328125 28.8125 1.328125 Z M 28.8125 1.328125 "/></g></g></g></g></g></svg>