<svg xmlns="http://www.w3.org/2000/svg" xmlns:xlink="http://www.w3.org/1999/xlink" width="1500" zoomAndPan="magnify" viewBox="0 0 1125 1124.99995" height="1500" preserveAspectRatio="xMidYMid meet" version="1.0"><path fill="#1eae98" d="M 562.5 1080.226562 C 284.625 1080.226562 57.148438 860.175781 45.449219 585 L 141.074219 585 C 146.25 691.425781 190.574219 791.101562 267.523438 867.375 C 348.300781 947.699219 454.050781 991.574219 566.101562 991.574219 C 567.675781 991.574219 569.25 991.574219 570.601562 991.574219 C 803.699219 989.101562 992.476562 796.5 991.351562 561.144531 C 988.199219 506.019531 967.5 365.851562 846.449219 255.824219 C 743.851562 162.449219 627.300781 143.550781 566.101562 140.394531 L 263.480469 140.394531 C 348.074219 80.324219 451.125 45 562.5 45 C 847.800781 44.769531 1080 276.976562 1080 562.5 C 1080 848.019531 847.800781 1080.226562 562.5 1080.226562 Z M 326.019531 585 L 428.394531 585 C 489.375 592.644531 540 631.125 560.476562 686.019531 C 579.601562 737.101562 564.976562 783.675781 554.175781 807.519531 C 432.894531 800.769531 335.476562 705.144531 326.019531 585 Z M 104.855469 321.074219 L 559.351562 321.300781 C 625.726562 320.175781 688.726562 346.050781 736.425781 393.300781 C 783.449219 439.875 809.324219 501.300781 809.101562 566.101562 C 808.875 632.925781 781.644531 693.449219 737.769531 737.324219 C 740.699219 720.675781 742.5 703.800781 742.5 686.476562 C 742.5 530.769531 621.894531 404.324219 473.625 404.324219 L 69.75 404.324219 C 78.980469 375.300781 90.898438 347.394531 104.855469 321.074219 Z M 57.605469 448.875 L 473.394531 448.875 C 596.925781 448.875 697.269531 555.300781 697.269531 686.25 C 697.269531 719.101562 690.976562 750.601562 678.824219 780.300781 C 655.425781 792.675781 629.769531 801 602.769531 805.050781 C 613.800781 772.199219 621.894531 723.375 602.101562 670.269531 C 575.550781 599.175781 510.519531 549.449219 432 540.226562 C 431.101562 540.226562 430.199219 540 429.300781 540 L 45.449219 540 C 46.800781 508.949219 50.855469 478.574219 57.605469 448.875 Z M 208.574219 185.175781 L 564.75 185.175781 C 618.976562 187.875 723.824219 204.75 816.074219 288.894531 C 924.976562 387.894531 943.425781 514.125 946.351562 562.5 C 947.25 772.199219 778.5 944.550781 569.925781 946.800781 C 469.125 947.925781 372.144531 908.324219 299.023438 835.644531 C 230.625 767.699219 191.023438 679.5 186.074219 585 L 281.25 585 C 290.925781 733.726562 414.449219 851.851562 565.425781 852.976562 C 566.101562 852.976562 566.769531 853.199219 567.449219 853.199219 C 568.351562 853.199219 569.019531 852.976562 569.699219 852.976562 C 726.074219 851.625 853.425781 723.601562 853.875 566.324219 C 854.101562 489.375 823.726562 416.699219 767.925781 361.574219 C 711.675781 305.769531 636.976562 275.394531 558.894531 276.519531 L 131.398438 276.300781 C 153.675781 243 179.550781 212.394531 208.574219 185.175781 Z M 562.5 0 C 418.269531 0 286.648438 54.449219 187.199219 144 C 185.398438 145.351562 183.605469 146.699219 182.25 148.5 C 139.5 187.875 102.824219 233.769531 73.800781 284.625 C 72.449219 286.425781 71.324219 288.226562 70.425781 290.476562 C 47.699219 331.199219 29.925781 375.074219 18 421.425781 C 18 421.644531 17.773438 421.875 17.773438 422.101562 C 6.074219 467.101562 0 514.125 0 562.5 C 0 872.550781 252.230469 1125 562.5 1125 C 872.769531 1125 1125 872.550781 1125 562.5 C 1125 252.449219 872.550781 0 562.5 0 " fill-opacity="1" fill-rule="nonzero"/></svg>