<svg xmlns="http://www.w3.org/2000/svg" xmlns:xlink="http://www.w3.org/1999/xlink" width="480" zoomAndPan="magnify" viewBox="0 0 360 143.999998" height="192" preserveAspectRatio="xMidYMid meet" version="1.0"><defs><g/><clipPath id="f65cc3b88d"><path d="M 0 7.835938 L 128.25 7.835938 L 128.25 136.085938 L 0 136.085938 Z M 0 7.835938 " clip-rule="nonzero"/></clipPath><clipPath id="8d3c417625"><rect x="0" width="107" y="0" height="64"/></clipPath><clipPath id="62c6acc8ae"><rect x="0" width="207" y="0" height="28"/></clipPath></defs><g clip-path="url(#f65cc3b88d)"><path fill="#1eae98" d="M 64.160156 131.046875 C 32.464844 131.046875 6.519531 105.949219 5.183594 74.5625 L 16.089844 74.5625 C 16.683594 86.699219 21.738281 98.070312 30.515625 106.769531 C 39.726562 115.933594 51.789062 120.9375 64.570312 120.9375 C 64.75 120.9375 64.929688 120.9375 65.085938 120.9375 C 91.671875 120.65625 113.203125 98.6875 113.078125 71.839844 C 112.714844 65.554688 110.355469 49.566406 96.546875 37.015625 C 84.847656 26.363281 71.550781 24.207031 64.570312 23.847656 L 30.054688 23.847656 C 39.703125 16.996094 51.457031 12.96875 64.160156 12.96875 C 96.703125 12.941406 123.1875 39.429688 123.1875 71.996094 C 123.1875 104.5625 96.703125 131.046875 64.160156 131.046875 Z M 37.1875 74.5625 L 48.863281 74.5625 C 55.820312 75.433594 61.59375 79.824219 63.929688 86.085938 C 66.109375 91.910156 64.441406 97.222656 63.210938 99.941406 C 49.378906 99.171875 38.265625 88.265625 37.1875 74.5625 Z M 11.960938 44.457031 L 63.800781 44.484375 C 71.371094 44.355469 78.558594 47.304688 84 52.695312 C 89.363281 58.007812 92.3125 65.015625 92.289062 72.40625 C 92.261719 80.027344 89.15625 86.929688 84.152344 91.9375 C 84.484375 90.039062 84.691406 88.113281 84.691406 86.136719 C 84.691406 68.375 70.933594 53.953125 54.023438 53.953125 L 7.957031 53.953125 C 9.007812 50.644531 10.367188 47.460938 11.960938 44.457031 Z M 6.570312 59.035156 L 53.996094 59.035156 C 68.085938 59.035156 79.53125 71.175781 79.53125 86.109375 C 79.53125 89.859375 78.816406 93.449219 77.429688 96.839844 C 74.757812 98.25 71.832031 99.199219 68.753906 99.660156 C 70.011719 95.914062 70.933594 90.34375 68.675781 84.289062 C 65.648438 76.179688 58.230469 70.507812 49.273438 69.453125 C 49.171875 69.453125 49.070312 69.429688 48.96875 69.429688 L 5.183594 69.429688 C 5.339844 65.886719 5.800781 62.421875 6.570312 59.035156 Z M 23.789062 28.957031 L 64.417969 28.957031 C 70.601562 29.265625 82.5625 31.1875 93.082031 40.789062 C 105.503906 52.078125 107.609375 66.476562 107.945312 71.996094 C 108.046875 95.914062 88.796875 115.574219 65.007812 115.828125 C 53.507812 115.957031 42.449219 111.441406 34.105469 103.152344 C 26.304688 95.402344 21.789062 85.339844 21.222656 74.5625 L 32.082031 74.5625 C 33.183594 91.527344 47.273438 105 64.492188 105.128906 C 64.570312 105.128906 64.648438 105.152344 64.722656 105.152344 C 64.828125 105.152344 64.902344 105.128906 64.980469 105.128906 C 82.816406 104.972656 97.34375 90.371094 97.394531 72.429688 C 97.421875 63.652344 93.957031 55.363281 87.589844 49.078125 C 81.175781 42.710938 72.65625 39.246094 63.75 39.375 L 14.988281 39.351562 C 17.527344 35.550781 20.480469 32.0625 23.789062 28.957031 Z M 64.160156 7.835938 C 47.710938 7.835938 32.695312 14.046875 21.351562 24.261719 C 21.148438 24.414062 20.941406 24.566406 20.789062 24.773438 C 15.910156 29.265625 11.726562 34.5 8.417969 40.300781 C 8.261719 40.503906 8.136719 40.710938 8.03125 40.96875 C 5.441406 45.613281 3.414062 50.617188 2.054688 55.902344 C 2.054688 55.929688 2.027344 55.953125 2.027344 55.980469 C 0.691406 61.113281 0 66.476562 0 71.996094 C 0 107.359375 28.769531 136.15625 64.160156 136.15625 C 99.550781 136.15625 128.320312 107.359375 128.320312 71.996094 C 128.320312 36.628906 99.527344 7.835938 64.160156 7.835938 " fill-opacity="1" fill-rule="nonzero"/></g><g transform="matrix(1, 0, 0, 1, 140, 33)"><g clip-path="url(#8d3c417625)"><g fill="#000000" fill-opacity="1"><g transform="translate(0.990173, 44.127667)"><g><path d="M 20.015625 0.5625 C 17.265625 0.5625 14.769531 0.0976562 12.53125 -0.828125 C 10.289062 -1.765625 8.351562 -3.050781 6.71875 -4.6875 C 5.09375 -6.332031 3.84375 -8.238281 2.96875 -10.40625 C 2.101562 -12.582031 1.671875 -14.910156 1.671875 -17.390625 L 1.671875 -17.484375 C 1.671875 -19.992188 2.101562 -22.328125 2.96875 -24.484375 C 3.84375 -26.640625 5.085938 -28.53125 6.703125 -30.15625 C 8.316406 -31.789062 10.25 -33.0625 12.5 -33.96875 C 14.757812 -34.882812 17.265625 -35.34375 20.015625 -35.34375 C 22.753906 -35.34375 25.238281 -34.882812 27.46875 -33.96875 C 29.695312 -33.0625 31.613281 -31.789062 33.21875 -30.15625 C 34.832031 -28.53125 36.078125 -26.640625 36.953125 -24.484375 C 37.828125 -22.328125 38.265625 -19.992188 38.265625 -17.484375 L 38.265625 -17.390625 C 38.265625 -14.910156 37.828125 -12.582031 36.953125 -10.40625 C 36.078125 -8.238281 34.832031 -6.332031 33.21875 -4.6875 C 31.613281 -3.050781 29.6875 -1.765625 27.4375 -0.828125 C 25.195312 0.0976562 22.722656 0.5625 20.015625 0.5625 Z M 20.015625 -6.890625 C 21.921875 -6.890625 23.640625 -7.328125 25.171875 -8.203125 C 26.703125 -9.078125 27.910156 -10.304688 28.796875 -11.890625 C 29.679688 -13.472656 30.125 -15.304688 30.125 -17.390625 L 30.125 -17.484375 C 30.125 -19.597656 29.679688 -21.429688 28.796875 -22.984375 C 27.910156 -24.546875 26.703125 -25.753906 25.171875 -26.609375 C 23.640625 -27.460938 21.921875 -27.890625 20.015625 -27.890625 C 18.066406 -27.890625 16.320312 -27.460938 14.78125 -26.609375 C 13.238281 -25.753906 12.023438 -24.546875 11.140625 -22.984375 C 10.253906 -21.429688 9.8125 -19.597656 9.8125 -17.484375 L 9.8125 -17.390625 C 9.8125 -15.304688 10.253906 -13.472656 11.140625 -11.890625 C 12.023438 -10.304688 13.238281 -9.078125 14.78125 -8.203125 C 16.320312 -7.328125 18.066406 -6.890625 20.015625 -6.890625 Z M 20.015625 -6.890625 "/></g></g></g><g fill="#000000" fill-opacity="1"><g transform="translate(40.922321, 44.127667)"><g><path d="M 10.203125 0 L 2.1875 0 L 2.1875 -34.75 L 18.8125 -34.75 C 21.09375 -34.75 23.023438 -34.441406 24.609375 -33.828125 C 26.191406 -33.210938 27.46875 -32.375 28.4375 -31.3125 C 29.414062 -30.257812 30.125 -29.066406 30.5625 -27.734375 C 31.007812 -26.410156 31.234375 -25.050781 31.234375 -23.65625 L 31.234375 -23.609375 C 31.234375 -21.546875 30.800781 -19.628906 29.9375 -17.859375 C 29.082031 -16.085938 27.75 -14.660156 25.9375 -13.578125 C 24.125 -12.492188 21.75 -11.953125 18.8125 -11.953125 L 10.203125 -11.953125 Z M 10.203125 -27.296875 L 10.203125 -18.890625 L 17.953125 -18.890625 C 19.640625 -18.890625 20.910156 -19.222656 21.765625 -19.890625 C 22.617188 -20.566406 23.046875 -21.617188 23.046875 -23.046875 L 23.046875 -23.09375 C 23.046875 -25.894531 21.347656 -27.296875 17.953125 -27.296875 Z M 10.203125 -27.296875 "/></g></g></g><g fill="#000000" fill-opacity="1"><g transform="translate(73.356477, 44.127667)"><g><path d="M 20.046875 0.59375 C 16.390625 0.59375 13.175781 -0.144531 10.40625 -1.625 C 7.632812 -3.113281 5.484375 -5.207031 3.953125 -7.90625 C 2.429688 -10.601562 1.671875 -13.738281 1.671875 -17.3125 L 1.671875 -17.390625 C 1.671875 -20.992188 2.429688 -24.132812 3.953125 -26.8125 C 5.484375 -29.5 7.628906 -31.59375 10.390625 -33.09375 C 13.148438 -34.59375 16.367188 -35.34375 20.046875 -35.34375 C 22.421875 -35.34375 24.539062 -35.050781 26.40625 -34.46875 C 28.28125 -33.882812 30.003906 -33.109375 31.578125 -32.140625 L 28.484375 -25.578125 C 27.003906 -26.429688 25.5625 -27.03125 24.15625 -27.375 C 22.757812 -27.71875 21.390625 -27.890625 20.046875 -27.890625 C 18.140625 -27.890625 16.40625 -27.472656 14.84375 -26.640625 C 13.289062 -25.816406 12.0625 -24.617188 11.15625 -23.046875 C 10.257812 -21.472656 9.8125 -19.585938 9.8125 -17.390625 L 9.8125 -17.3125 C 9.8125 -15.25 10.257812 -13.429688 11.15625 -11.859375 C 12.0625 -10.296875 13.289062 -9.078125 14.84375 -8.203125 C 16.40625 -7.328125 18.140625 -6.890625 20.046875 -6.890625 C 21.390625 -6.890625 22.757812 -7.054688 24.15625 -7.390625 C 25.5625 -7.722656 27.003906 -8.316406 28.484375 -9.171875 L 31.578125 -2.609375 C 30.003906 -1.671875 28.296875 -0.898438 26.453125 -0.296875 C 24.609375 0.296875 22.472656 0.59375 20.046875 0.59375 Z M 20.046875 0.59375 "/></g></g></g></g></g><g transform="matrix(1, 0, 0, 1, 146, 80)"><g clip-path="url(#62c6acc8ae)"><g fill="#000000" fill-opacity="1"><g transform="translate(1.326775, 18.828038)"><g><path d="M 13.3125 -3.46875 L 15.15625 -14.46875 L 18.71875 -14.46875 L 15.9375 0 L 11.359375 0 L 9.53125 -10.953125 L 7.6875 0 L 3.125 0 L 0.34375 -14.46875 L 3.90625 -14.46875 L 5.75 -3.5 L 7.59375 -14.46875 L 11.46875 -14.46875 Z M 13.3125 -3.46875 "/></g></g></g><g fill="#000000" fill-opacity="1"><g transform="translate(19.266567, 18.828038)"><g><path d="M 5.828125 -10.78125 C 6.828125 -10.78125 7.691406 -10.648438 8.421875 -10.390625 C 9.160156 -10.140625 9.726562 -9.707031 10.125 -9.09375 C 10.519531 -8.488281 10.71875 -7.648438 10.71875 -6.578125 L 10.71875 -0.21875 C 10.007812 -0.0625 9.21875 0.0625 8.34375 0.15625 C 7.46875 0.25 6.648438 0.296875 5.890625 0.296875 C 4.835938 0.296875 3.921875 0.191406 3.140625 -0.015625 C 2.367188 -0.234375 1.769531 -0.585938 1.34375 -1.078125 C 0.914062 -1.566406 0.703125 -2.238281 0.703125 -3.09375 L 0.703125 -3.109375 C 0.703125 -4.222656 1.125 -5.035156 1.96875 -5.546875 C 2.8125 -6.066406 3.914062 -6.328125 5.28125 -6.328125 C 5.632812 -6.328125 5.976562 -6.316406 6.3125 -6.296875 C 6.65625 -6.285156 7.015625 -6.25 7.390625 -6.1875 L 7.390625 -6.484375 C 7.390625 -7.046875 7.179688 -7.4375 6.765625 -7.65625 C 6.359375 -7.882812 5.804688 -8 5.109375 -8 C 4.617188 -8 4.035156 -7.941406 3.359375 -7.828125 C 2.679688 -7.710938 2.054688 -7.554688 1.484375 -7.359375 L 2.25 -10.28125 C 2.488281 -10.363281 2.800781 -10.4375 3.1875 -10.5 C 3.570312 -10.570312 3.992188 -10.632812 4.453125 -10.6875 C 4.921875 -10.75 5.378906 -10.78125 5.828125 -10.78125 Z M 4.140625 -3.3125 L 4.140625 -3.296875 C 4.140625 -2.921875 4.304688 -2.640625 4.640625 -2.453125 C 4.984375 -2.273438 5.445312 -2.1875 6.03125 -2.1875 C 6.25 -2.1875 6.472656 -2.195312 6.703125 -2.21875 C 6.929688 -2.238281 7.160156 -2.257812 7.390625 -2.28125 L 7.390625 -4.28125 C 7.160156 -4.332031 6.921875 -4.363281 6.671875 -4.375 C 6.429688 -4.394531 6.21875 -4.40625 6.03125 -4.40625 C 5.445312 -4.40625 4.984375 -4.320312 4.640625 -4.15625 C 4.304688 -4 4.140625 -3.71875 4.140625 -3.3125 Z M 4.140625 -3.3125 "/></g></g></g><g fill="#000000" fill-opacity="1"><g transform="translate(30.887294, 18.828038)"><g><path d="M 4.265625 0 L 0.90625 0 L 0.90625 -10.015625 C 1.445312 -10.117188 2 -10.195312 2.5625 -10.25 C 3.132812 -10.3125 3.671875 -10.351562 4.171875 -10.375 C 4.671875 -10.394531 5.082031 -10.40625 5.40625 -10.40625 L 7.5 -10.40625 L 7.5 -7.296875 L 5.921875 -7.296875 C 5.828125 -7.296875 5.65625 -7.289062 5.40625 -7.28125 C 5.164062 -7.269531 4.929688 -7.257812 4.703125 -7.25 C 4.472656 -7.238281 4.328125 -7.222656 4.265625 -7.203125 Z M 4.265625 0 "/></g></g></g><g fill="#000000" fill-opacity="1"><g transform="translate(38.687982, 18.828038)"><g><path d="M 11.671875 -4.78125 L 11.671875 -4.609375 L 4.171875 -4.609375 C 4.328125 -4.046875 4.617188 -3.570312 5.046875 -3.1875 C 5.484375 -2.8125 6.03125 -2.625 6.6875 -2.625 C 7.289062 -2.625 7.859375 -2.71875 8.390625 -2.90625 C 8.921875 -3.09375 9.375 -3.320312 9.75 -3.59375 L 11.203125 -1 C 10.660156 -0.664062 10.015625 -0.367188 9.265625 -0.109375 C 8.515625 0.148438 7.613281 0.28125 6.5625 0.28125 C 5.375 0.28125 4.335938 0.0507812 3.453125 -0.40625 C 2.578125 -0.875 1.898438 -1.523438 1.421875 -2.359375 C 0.941406 -3.203125 0.703125 -4.171875 0.703125 -5.265625 L 0.703125 -5.296875 C 0.703125 -6.390625 0.925781 -7.347656 1.375 -8.171875 C 1.820312 -9.003906 2.460938 -9.65625 3.296875 -10.125 C 4.128906 -10.59375 5.109375 -10.828125 6.234375 -10.828125 C 7.347656 -10.828125 8.304688 -10.59375 9.109375 -10.125 C 9.921875 -9.65625 10.550781 -8.96875 11 -8.0625 C 11.445312 -7.15625 11.671875 -6.0625 11.671875 -4.78125 Z M 6.1875 -8.1875 C 5.675781 -8.1875 5.242188 -8.015625 4.890625 -7.671875 C 4.546875 -7.335938 4.304688 -6.921875 4.171875 -6.421875 L 8.28125 -6.421875 C 8.1875 -6.941406 7.957031 -7.363281 7.59375 -7.6875 C 7.226562 -8.019531 6.757812 -8.1875 6.1875 -8.1875 Z M 6.1875 -8.1875 "/></g></g></g><g fill="#000000" fill-opacity="1"><g transform="translate(51.058433, 18.828038)"><g><path d="M 5.828125 -10.84375 C 6.484375 -10.84375 7.109375 -10.78125 7.703125 -10.65625 C 8.296875 -10.53125 8.828125 -10.3125 9.296875 -10 C 9.765625 -9.695312 10.128906 -9.28125 10.390625 -8.75 C 10.660156 -8.226562 10.796875 -7.566406 10.796875 -6.765625 L 10.796875 0 L 7.4375 0 L 7.4375 -6.375 C 7.4375 -6.90625 7.289062 -7.28125 7 -7.5 C 6.71875 -7.726562 6.285156 -7.84375 5.703125 -7.84375 C 5.515625 -7.84375 5.289062 -7.832031 5.03125 -7.8125 C 4.769531 -7.789062 4.515625 -7.753906 4.265625 -7.703125 L 4.265625 0 L 0.90625 0 L 0.90625 -14.46875 L 4.265625 -14.46875 L 4.265625 -10.765625 C 4.578125 -10.785156 4.863281 -10.800781 5.125 -10.8125 C 5.394531 -10.832031 5.628906 -10.84375 5.828125 -10.84375 Z M 5.828125 -10.84375 "/></g></g></g><g fill="#000000" fill-opacity="1"><g transform="translate(62.786261, 18.828038)"><g><path d="M 6.546875 0.296875 C 5.390625 0.296875 4.367188 0.0546875 3.484375 -0.421875 C 2.609375 -0.898438 1.925781 -1.5625 1.4375 -2.40625 C 0.945312 -3.25 0.703125 -4.207031 0.703125 -5.28125 L 0.703125 -5.296875 C 0.703125 -6.378906 0.945312 -7.335938 1.4375 -8.171875 C 1.925781 -9.003906 2.609375 -9.65625 3.484375 -10.125 C 4.367188 -10.601562 5.390625 -10.84375 6.546875 -10.84375 C 7.710938 -10.84375 8.734375 -10.601562 9.609375 -10.125 C 10.484375 -9.65625 11.164062 -9.003906 11.65625 -8.171875 C 12.15625 -7.335938 12.40625 -6.378906 12.40625 -5.296875 L 12.40625 -5.28125 C 12.40625 -4.207031 12.15625 -3.25 11.65625 -2.40625 C 11.164062 -1.5625 10.476562 -0.898438 9.59375 -0.421875 C 8.71875 0.0546875 7.703125 0.296875 6.546875 0.296875 Z M 6.546875 -2.6875 C 7.296875 -2.6875 7.894531 -2.9375 8.34375 -3.4375 C 8.800781 -3.9375 9.03125 -4.554688 9.03125 -5.296875 L 9.03125 -5.3125 C 9.03125 -6.050781 8.804688 -6.65625 8.359375 -7.125 C 7.921875 -7.601562 7.316406 -7.84375 6.546875 -7.84375 C 5.785156 -7.84375 5.179688 -7.601562 4.734375 -7.125 C 4.285156 -6.65625 4.0625 -6.050781 4.0625 -5.3125 L 4.0625 -5.296875 C 4.0625 -4.554688 4.285156 -3.9375 4.734375 -3.4375 C 5.191406 -2.9375 5.796875 -2.6875 6.546875 -2.6875 Z M 6.546875 -2.6875 "/></g></g></g><g fill="#000000" fill-opacity="1"><g transform="translate(75.888585, 18.828038)"><g><path d="M 5.890625 0.296875 C 5.234375 0.296875 4.609375 0.226562 4.015625 0.09375 C 3.421875 -0.03125 2.890625 -0.242188 2.421875 -0.546875 C 1.953125 -0.847656 1.582031 -1.265625 1.3125 -1.796875 C 1.039062 -2.328125 0.90625 -2.988281 0.90625 -3.78125 L 0.90625 -10.40625 L 4.265625 -10.40625 L 4.265625 -4.046875 C 4.265625 -3.503906 4.410156 -3.117188 4.703125 -2.890625 C 4.992188 -2.671875 5.429688 -2.5625 6.015625 -2.5625 C 6.210938 -2.5625 6.4375 -2.570312 6.6875 -2.59375 C 6.9375 -2.625 7.191406 -2.664062 7.453125 -2.71875 L 7.453125 -10.40625 L 10.8125 -10.40625 L 10.8125 -0.265625 C 10.226562 -0.160156 9.617188 -0.0664062 8.984375 0.015625 C 8.359375 0.0976562 7.769531 0.164062 7.21875 0.21875 C 6.675781 0.269531 6.234375 0.296875 5.890625 0.296875 Z M 5.890625 0.296875 "/></g></g></g><g fill="#000000" fill-opacity="1"><g transform="translate(87.616408, 18.828038)"><g><path d="M 5.40625 0.25 C 3.726562 0.25 2.148438 -0.0703125 0.671875 -0.71875 L 1.546875 -3.015625 C 2.179688 -2.753906 2.800781 -2.5625 3.40625 -2.4375 C 4.007812 -2.3125 4.566406 -2.25 5.078125 -2.25 C 5.609375 -2.25 6.03125 -2.300781 6.34375 -2.40625 C 6.65625 -2.507812 6.8125 -2.710938 6.8125 -3.015625 C 6.8125 -3.210938 6.703125 -3.378906 6.484375 -3.515625 C 6.273438 -3.648438 5.847656 -3.800781 5.203125 -3.96875 L 4.234375 -4.234375 C 3.160156 -4.515625 2.363281 -4.925781 1.84375 -5.46875 C 1.332031 -6.007812 1.078125 -6.726562 1.078125 -7.625 C 1.078125 -8.601562 1.445312 -9.378906 2.1875 -9.953125 C 2.925781 -10.535156 4 -10.828125 5.40625 -10.828125 C 6.21875 -10.828125 7.015625 -10.742188 7.796875 -10.578125 C 8.578125 -10.410156 9.234375 -10.179688 9.765625 -9.890625 L 8.8125 -7.65625 C 8.351562 -7.894531 7.84375 -8.066406 7.28125 -8.171875 C 6.726562 -8.273438 6.238281 -8.328125 5.8125 -8.328125 C 5.394531 -8.328125 5.070312 -8.28125 4.84375 -8.1875 C 4.613281 -8.101562 4.5 -7.945312 4.5 -7.71875 C 4.5 -7.519531 4.609375 -7.351562 4.828125 -7.21875 C 5.046875 -7.09375 5.429688 -6.957031 5.984375 -6.8125 L 6.65625 -6.625 C 7.820312 -6.300781 8.679688 -5.863281 9.234375 -5.3125 C 9.785156 -4.757812 10.0625 -4.070312 10.0625 -3.25 C 10.0625 -0.914062 8.507812 0.25 5.40625 0.25 Z M 5.40625 0.25 "/></g></g></g><g fill="#000000" fill-opacity="1"><g transform="translate(98.076842, 18.828038)"><g><path d="M 11.671875 -4.78125 L 11.671875 -4.609375 L 4.171875 -4.609375 C 4.328125 -4.046875 4.617188 -3.570312 5.046875 -3.1875 C 5.484375 -2.8125 6.03125 -2.625 6.6875 -2.625 C 7.289062 -2.625 7.859375 -2.71875 8.390625 -2.90625 C 8.921875 -3.09375 9.375 -3.320312 9.75 -3.59375 L 11.203125 -1 C 10.660156 -0.664062 10.015625 -0.367188 9.265625 -0.109375 C 8.515625 0.148438 7.613281 0.28125 6.5625 0.28125 C 5.375 0.28125 4.335938 0.0507812 3.453125 -0.40625 C 2.578125 -0.875 1.898438 -1.523438 1.421875 -2.359375 C 0.941406 -3.203125 0.703125 -4.171875 0.703125 -5.265625 L 0.703125 -5.296875 C 0.703125 -6.390625 0.925781 -7.347656 1.375 -8.171875 C 1.820312 -9.003906 2.460938 -9.65625 3.296875 -10.125 C 4.128906 -10.59375 5.109375 -10.828125 6.234375 -10.828125 C 7.347656 -10.828125 8.304688 -10.59375 9.109375 -10.125 C 9.921875 -9.65625 10.550781 -8.96875 11 -8.0625 C 11.445312 -7.15625 11.671875 -6.0625 11.671875 -4.78125 Z M 6.1875 -8.1875 C 5.675781 -8.1875 5.242188 -8.015625 4.890625 -7.671875 C 4.546875 -7.335938 4.304688 -6.921875 4.171875 -6.421875 L 8.28125 -6.421875 C 8.1875 -6.941406 7.957031 -7.363281 7.59375 -7.6875 C 7.226562 -8.019531 6.757812 -8.1875 6.1875 -8.1875 Z M 6.1875 -8.1875 "/></g></g></g><g fill="#000000" fill-opacity="1"><g transform="translate(110.447293, 18.828038)"><g/></g></g><g fill="#000000" fill-opacity="1"><g transform="translate(113.356939, 18.828038)"><g><path d="M 6.140625 0.234375 C 5.035156 0.234375 3.988281 0.117188 3 -0.109375 C 2.019531 -0.347656 1.203125 -0.671875 0.546875 -1.078125 L 1.84375 -3.859375 C 2.363281 -3.492188 2.988281 -3.210938 3.71875 -3.015625 C 4.445312 -2.828125 5.210938 -2.734375 6.015625 -2.734375 C 6.796875 -2.734375 7.421875 -2.84375 7.890625 -3.0625 C 8.359375 -3.289062 8.59375 -3.625 8.59375 -4.0625 L 8.59375 -4.109375 C 8.59375 -4.367188 8.5 -4.585938 8.3125 -4.765625 C 8.125 -4.941406 7.800781 -5.117188 7.34375 -5.296875 C 6.882812 -5.472656 6.25 -5.675781 5.4375 -5.90625 C 4.382812 -6.21875 3.535156 -6.566406 2.890625 -6.953125 C 2.253906 -7.347656 1.796875 -7.832031 1.515625 -8.40625 C 1.242188 -8.976562 1.109375 -9.671875 1.109375 -10.484375 L 1.109375 -10.53125 C 1.109375 -11.375 1.320312 -12.109375 1.75 -12.734375 C 2.1875 -13.367188 2.816406 -13.859375 3.640625 -14.203125 C 4.460938 -14.546875 5.441406 -14.71875 6.578125 -14.71875 C 7.566406 -14.71875 8.515625 -14.609375 9.421875 -14.390625 C 10.335938 -14.171875 11.117188 -13.859375 11.765625 -13.453125 L 10.484375 -10.6875 C 9.960938 -11.03125 9.359375 -11.296875 8.671875 -11.484375 C 7.984375 -11.671875 7.285156 -11.765625 6.578125 -11.765625 C 5.847656 -11.765625 5.304688 -11.648438 4.953125 -11.421875 C 4.597656 -11.203125 4.421875 -10.921875 4.421875 -10.578125 L 4.421875 -10.5625 C 4.421875 -10.164062 4.609375 -9.851562 4.984375 -9.625 C 5.367188 -9.394531 6.003906 -9.144531 6.890625 -8.875 C 8.140625 -8.5 9.128906 -8.109375 9.859375 -7.703125 C 10.597656 -7.304688 11.128906 -6.828125 11.453125 -6.265625 C 11.785156 -5.703125 11.953125 -4.992188 11.953125 -4.140625 L 11.953125 -4.109375 C 11.953125 -2.722656 11.429688 -1.648438 10.390625 -0.890625 C 9.359375 -0.140625 7.941406 0.234375 6.140625 0.234375 Z M 6.140625 0.234375 "/></g></g></g><g fill="#000000" fill-opacity="1"><g transform="translate(125.852342, 18.828038)"><g><path d="M 6.546875 0.296875 C 5.390625 0.296875 4.367188 0.0546875 3.484375 -0.421875 C 2.609375 -0.898438 1.925781 -1.5625 1.4375 -2.40625 C 0.945312 -3.25 0.703125 -4.207031 0.703125 -5.28125 L 0.703125 -5.296875 C 0.703125 -6.378906 0.945312 -7.335938 1.4375 -8.171875 C 1.925781 -9.003906 2.609375 -9.65625 3.484375 -10.125 C 4.367188 -10.601562 5.390625 -10.84375 6.546875 -10.84375 C 7.710938 -10.84375 8.734375 -10.601562 9.609375 -10.125 C 10.484375 -9.65625 11.164062 -9.003906 11.65625 -8.171875 C 12.15625 -7.335938 12.40625 -6.378906 12.40625 -5.296875 L 12.40625 -5.28125 C 12.40625 -4.207031 12.15625 -3.25 11.65625 -2.40625 C 11.164062 -1.5625 10.476562 -0.898438 9.59375 -0.421875 C 8.71875 0.0546875 7.703125 0.296875 6.546875 0.296875 Z M 6.546875 -2.6875 C 7.296875 -2.6875 7.894531 -2.9375 8.34375 -3.4375 C 8.800781 -3.9375 9.03125 -4.554688 9.03125 -5.296875 L 9.03125 -5.3125 C 9.03125 -6.050781 8.804688 -6.65625 8.359375 -7.125 C 7.921875 -7.601562 7.316406 -7.84375 6.546875 -7.84375 C 5.785156 -7.84375 5.179688 -7.601562 4.734375 -7.125 C 4.285156 -6.65625 4.0625 -6.050781 4.0625 -5.3125 L 4.0625 -5.296875 C 4.0625 -4.554688 4.285156 -3.9375 4.734375 -3.4375 C 5.191406 -2.9375 5.796875 -2.6875 6.546875 -2.6875 Z M 6.546875 -2.6875 "/></g></g></g><g fill="#000000" fill-opacity="1"><g transform="translate(138.954661, 18.828038)"><g><path d="M 4.265625 0 L 0.90625 0 L 0.90625 -14.46875 L 4.265625 -14.46875 Z M 4.265625 0 "/></g></g></g><g fill="#000000" fill-opacity="1"><g transform="translate(144.149181, 18.828038)"><g><path d="M 5.890625 0.296875 C 5.234375 0.296875 4.609375 0.226562 4.015625 0.09375 C 3.421875 -0.03125 2.890625 -0.242188 2.421875 -0.546875 C 1.953125 -0.847656 1.582031 -1.265625 1.3125 -1.796875 C 1.039062 -2.328125 0.90625 -2.988281 0.90625 -3.78125 L 0.90625 -10.40625 L 4.265625 -10.40625 L 4.265625 -4.046875 C 4.265625 -3.503906 4.410156 -3.117188 4.703125 -2.890625 C 4.992188 -2.671875 5.429688 -2.5625 6.015625 -2.5625 C 6.210938 -2.5625 6.4375 -2.570312 6.6875 -2.59375 C 6.9375 -2.625 7.191406 -2.664062 7.453125 -2.71875 L 7.453125 -10.40625 L 10.8125 -10.40625 L 10.8125 -0.265625 C 10.226562 -0.160156 9.617188 -0.0664062 8.984375 0.015625 C 8.359375 0.0976562 7.769531 0.164062 7.21875 0.21875 C 6.675781 0.269531 6.234375 0.296875 5.890625 0.296875 Z M 5.890625 0.296875 "/></g></g></g><g fill="#000000" fill-opacity="1"><g transform="translate(155.877015, 18.828038)"><g><path d="M 9.140625 0 L 5.4375 0 C 4.25 0 3.394531 -0.28125 2.875 -0.84375 C 2.363281 -1.40625 2.109375 -2.265625 2.109375 -3.421875 L 2.109375 -7.296875 L 0.359375 -7.296875 L 0.359375 -10.40625 L 2.109375 -10.40625 L 2.109375 -13.453125 L 5.484375 -13.453125 L 5.484375 -10.40625 L 9.125 -10.40625 L 9.125 -7.296875 L 5.484375 -7.296875 L 5.484375 -4.5 C 5.484375 -4.03125 5.597656 -3.679688 5.828125 -3.453125 C 6.066406 -3.234375 6.453125 -3.125 6.984375 -3.125 L 9.140625 -3.125 Z M 9.140625 0 "/></g></g></g><g fill="#000000" fill-opacity="1"><g transform="translate(165.748379, 18.828038)"><g><path d="M 2.609375 -11.671875 C 2.160156 -11.671875 1.78125 -11.785156 1.46875 -12.015625 C 1.15625 -12.242188 1 -12.601562 1 -13.09375 C 1 -13.519531 1.148438 -13.859375 1.453125 -14.109375 C 1.753906 -14.359375 2.140625 -14.484375 2.609375 -14.484375 C 3.054688 -14.484375 3.429688 -14.359375 3.734375 -14.109375 C 4.035156 -13.859375 4.1875 -13.519531 4.1875 -13.09375 C 4.1875 -12.601562 4.03125 -12.242188 3.71875 -12.015625 C 3.40625 -11.785156 3.035156 -11.671875 2.609375 -11.671875 Z M 4.265625 0 L 0.90625 0 L 0.90625 -10.40625 L 4.265625 -10.40625 Z M 4.265625 0 "/></g></g></g><g fill="#000000" fill-opacity="1"><g transform="translate(170.942899, 18.828038)"><g><path d="M 6.546875 0.296875 C 5.390625 0.296875 4.367188 0.0546875 3.484375 -0.421875 C 2.609375 -0.898438 1.925781 -1.5625 1.4375 -2.40625 C 0.945312 -3.25 0.703125 -4.207031 0.703125 -5.28125 L 0.703125 -5.296875 C 0.703125 -6.378906 0.945312 -7.335938 1.4375 -8.171875 C 1.925781 -9.003906 2.609375 -9.65625 3.484375 -10.125 C 4.367188 -10.601562 5.390625 -10.84375 6.546875 -10.84375 C 7.710938 -10.84375 8.734375 -10.601562 9.609375 -10.125 C 10.484375 -9.65625 11.164062 -9.003906 11.65625 -8.171875 C 12.15625 -7.335938 12.40625 -6.378906 12.40625 -5.296875 L 12.40625 -5.28125 C 12.40625 -4.207031 12.15625 -3.25 11.65625 -2.40625 C 11.164062 -1.5625 10.476562 -0.898438 9.59375 -0.421875 C 8.71875 0.0546875 7.703125 0.296875 6.546875 0.296875 Z M 6.546875 -2.6875 C 7.296875 -2.6875 7.894531 -2.9375 8.34375 -3.4375 C 8.800781 -3.9375 9.03125 -4.554688 9.03125 -5.296875 L 9.03125 -5.3125 C 9.03125 -6.050781 8.804688 -6.65625 8.359375 -7.125 C 7.921875 -7.601562 7.316406 -7.84375 6.546875 -7.84375 C 5.785156 -7.84375 5.179688 -7.601562 4.734375 -7.125 C 4.285156 -6.65625 4.0625 -6.050781 4.0625 -5.3125 L 4.0625 -5.296875 C 4.0625 -4.554688 4.285156 -3.9375 4.734375 -3.4375 C 5.191406 -2.9375 5.796875 -2.6875 6.546875 -2.6875 Z M 6.546875 -2.6875 "/></g></g></g><g fill="#000000" fill-opacity="1"><g transform="translate(184.045218, 18.828038)"><g><path d="M 4.265625 0 L 0.90625 0 L 0.90625 -10.296875 C 1.488281 -10.398438 2.09375 -10.492188 2.71875 -10.578125 C 3.351562 -10.660156 3.941406 -10.722656 4.484375 -10.765625 C 5.035156 -10.816406 5.484375 -10.84375 5.828125 -10.84375 C 6.484375 -10.84375 7.109375 -10.78125 7.703125 -10.65625 C 8.296875 -10.53125 8.828125 -10.3125 9.296875 -10 C 9.773438 -9.695312 10.144531 -9.28125 10.40625 -8.75 C 10.675781 -8.226562 10.8125 -7.566406 10.8125 -6.765625 L 10.8125 0 L 7.453125 0 L 7.453125 -6.375 C 7.453125 -6.90625 7.3125 -7.28125 7.03125 -7.5 C 6.75 -7.726562 6.304688 -7.84375 5.703125 -7.84375 C 5.316406 -7.84375 4.835938 -7.796875 4.265625 -7.703125 Z M 4.265625 0 "/></g></g></g><g fill="#000000" fill-opacity="1"><g transform="translate(195.773062, 18.828038)"><g><path d="M 5.40625 0.25 C 3.726562 0.25 2.148438 -0.0703125 0.671875 -0.71875 L 1.546875 -3.015625 C 2.179688 -2.753906 2.800781 -2.5625 3.40625 -2.4375 C 4.007812 -2.3125 4.566406 -2.25 5.078125 -2.25 C 5.609375 -2.25 6.03125 -2.300781 6.34375 -2.40625 C 6.65625 -2.507812 6.8125 -2.710938 6.8125 -3.015625 C 6.8125 -3.210938 6.703125 -3.378906 6.484375 -3.515625 C 6.273438 -3.648438 5.847656 -3.800781 5.203125 -3.96875 L 4.234375 -4.234375 C 3.160156 -4.515625 2.363281 -4.925781 1.84375 -5.46875 C 1.332031 -6.007812 1.078125 -6.726562 1.078125 -7.625 C 1.078125 -8.601562 1.445312 -9.378906 2.1875 -9.953125 C 2.925781 -10.535156 4 -10.828125 5.40625 -10.828125 C 6.21875 -10.828125 7.015625 -10.742188 7.796875 -10.578125 C 8.578125 -10.410156 9.234375 -10.179688 9.765625 -9.890625 L 8.8125 -7.65625 C 8.351562 -7.894531 7.84375 -8.066406 7.28125 -8.171875 C 6.726562 -8.273438 6.238281 -8.328125 5.8125 -8.328125 C 5.394531 -8.328125 5.070312 -8.28125 4.84375 -8.1875 C 4.613281 -8.101562 4.5 -7.945312 4.5 -7.71875 C 4.5 -7.519531 4.609375 -7.351562 4.828125 -7.21875 C 5.046875 -7.09375 5.429688 -6.957031 5.984375 -6.8125 L 6.65625 -6.625 C 7.820312 -6.300781 8.679688 -5.863281 9.234375 -5.3125 C 9.785156 -4.757812 10.0625 -4.070312 10.0625 -3.25 C 10.0625 -0.914062 8.507812 0.25 5.40625 0.25 Z M 5.40625 0.25 "/></g></g></g></g></g></svg>